<?xml version="1.0" standalone="no"?>
<!DOCTYPE svg PUBLIC "-//W3C//DTD SVG 20010904//EN"
 "http://www.w3.org/TR/2001/REC-SVG-20010904/DTD/svg10.dtd">
<svg version="1.0" xmlns="http://www.w3.org/2000/svg"
 width="399.000000pt" height="340.000000pt" viewBox="0 0 399.000000 340.000000"
 preserveAspectRatio="xMidYMid meet">

<g transform="translate(0.000000,340.000000) scale(0.100000,-0.100000)"
fill="#000000" stroke="none">
<path d="M5 1700 c0 -938 1 -1321 2 -852 2 468 2 1236 0 1705 -1 468 -2 85 -2
-853z"/>
<path d="M3985 1700 c0 -938 1 -1321 2 -852 2 468 2 1236 0 1705 -1 468 -2 85
-2 -853z"/>
<path d="M3159 3365 c-8 -8 -43 -18 -78 -21 -52 -6 -65 -11 -73 -29 -6 -13
-20 -28 -33 -35 -13 -7 -33 -25 -44 -41 -12 -16 -30 -29 -39 -29 -10 0 -33
-11 -52 -25 -19 -14 -40 -25 -47 -25 -8 0 -31 -9 -53 -20 -22 -11 -58 -20 -81
-20 -32 0 -42 -4 -46 -20 -4 -14 -14 -20 -34 -20 -16 0 -29 5 -29 10 0 21 -38
9 -63 -20 -25 -27 -57 -32 -57 -9 0 15 -17 10 -47 -14 -40 -34 -74 -39 -135
-23 -81 22 -89 26 -140 73 -26 23 -55 43 -65 43 -21 0 -53 -21 -111 -71 -34
-29 -42 -42 -42 -70 0 -31 -5 -37 -42 -54 -47 -22 -67 -60 -73 -143 -3 -56
-14 -65 -77 -72 -51 -5 -53 -6 -61 -44 -7 -29 -20 -45 -55 -70 -25 -17 -67
-50 -94 -73 -26 -24 -62 -50 -79 -58 -18 -10 -37 -32 -47 -55 l-17 -40 -56 37
c-31 21 -65 50 -75 65 -28 41 -66 38 -94 -7 -12 -19 -34 -48 -48 -64 -15 -16
-34 -39 -42 -51 -15 -21 -23 -23 -108 -21 -127 3 -169 -10 -189 -57 -13 -31
-14 -49 -4 -117 22 -147 22 -147 -24 -165 -67 -25 -62 -15 -91 -168 -6 -30
-58 -52 -121 -52 -37 0 -53 -5 -75 -27 l-28 -26 -61 47 c-52 41 -64 46 -87 38
-34 -11 -57 -51 -49 -83 4 -14 21 -32 44 -44 21 -11 76 -59 123 -106 47 -47
104 -98 127 -112 23 -15 60 -51 82 -81 22 -30 67 -75 98 -100 32 -26 75 -60
96 -77 21 -17 51 -58 68 -92 49 -97 111 -178 191 -248 40 -35 117 -106 173
-157 55 -52 111 -99 125 -107 l25 -13 -3 97 c-2 53 1 121 8 151 36 171 169
320 339 381 l44 15 -63 70 c-163 180 -245 311 -281 452 -47 186 -2 354 131
482 119 115 281 157 445 115 92 -24 142 -52 217 -123 l68 -64 68 63 c105 99
201 139 337 139 136 0 235 -41 332 -136 73 -71 117 -155 137 -260 l13 -69 12
67 c7 45 9 113 5 201 -7 145 4 256 37 363 19 61 82 208 116 268 9 17 16 48 16
70 0 44 -33 183 -64 273 -22 64 -17 96 19 135 20 22 23 30 13 42 -6 7 -20 12
-29 9 -10 -2 -26 5 -36 16 -22 25 -46 27 -67 6z"/>
<path d="M1736 2274 c-206 -66 -315 -266 -261 -479 37 -146 126 -278 315 -466
l126 -126 109 -43 c61 -24 142 -51 180 -61 79 -21 195 -25 228 -8 70 37 315
268 422 399 158 193 214 371 166 526 -67 218 -296 327 -513 245 -67 -26 -141
-89 -208 -178 l-47 -62 -27 37 c-100 141 -231 223 -365 229 -50 2 -93 -3 -125
-13z"/>
</g>
</svg>
